{
  "accessors": [
    {
      "bufferView": 2,
      "componentType": 5126,
      "count": 7733,
      "max": [
        0.70872914791107178,
        1.5225943326950073,
        1.5454442501068115
      ],
      "min": [
        -0.70872914791107178,
        -1.4920932054519653,
        0.13825178146362305
      ],
      "type": "VEC3"
    },
    {
      "bufferView": 2,
      "byteOffset": 92796,
      "componentType": 5126,
      "count": 7733,
      "max": [
        1,
        1,
        1
      ],
      "min": [
        -1,
        -1,
        -1
      ],
      "type": "VEC3"
    },
    {
      "bufferView": 1,
      "componentType": 5126,
      "count": 7733,
      "max": [
        1,
        1
      ],
      "min": [
        0,
        0
      ],
      "type": "VEC2"
    },
    {
      "bufferView": 0,
      "componentType": 5125,
      "count": 24633,
      "max": [
        7732
      ],
      "min": [
        0
      ],
      "type": "SCALAR"
    },
    {
      "bufferView": 2,
      "byteOffset": 185592,
      "componentType": 5126,
      "count": 84,
      "max": [
        0.23488251864910126,
        0.0012454329989850521,
        0.063029356300830841
      ],
      "min": [
        -0.23488250374794006,
        -0.0015529935481026769,
        -0.070477858185768127
      ],
      "type": "VEC3"
    },
    {
      "bufferView": 2,
      "byteOffset": 186600,
      "componentType": 5126,
      "count": 84,
      "max": [
        1,
        1,
        1
      ],
      "min": [
        -1,
        -1,
        -1
      ],
      "type": "VEC3"
    },
    {
      "bufferView": 1,
      "byteOffset": 61864,
      "componentType": 5126,
      "count": 84,
      "max": [
        0.91963469982147217,
        0.94506174325942993
      ],
      "min": [
        0.081672735512256622,
        0.043150156736373901
      ],
      "type": "VEC2"
    },
    {
      "bufferView": 0,
      "byteOffset": 98532,
      "componentType": 5125,
      "count": 132,
      "max": [
        83
      ],
      "min": [
        0
      ],
      "type": "SCALAR"
    },
    {
      "bufferView": 2,
      "byteOffset": 187608,
      "componentType": 5126,
      "count": 200,
      "max": [
        0.082546927034854889,
        0.28140294551849365,
        0.28140291571617126
      ],
      "min": [
        -0.06991499662399292,
        -0.28140294551849365,
        -0.28140285611152649
      ],
      "type": "VEC3"
    },
    {
      "bufferView": 2,
      "byteOffset": 190008,
      "componentType": 5126,
      "count": 200,
      "max": [
        1,
        1,
        1
      ],
      "min": [
        -1,
        -1,
        -1
      ],
      "type": "VEC3"
    },
    {
      "bufferView": 1,
      "byteOffset": 62536,
      "componentType": 5126,
      "count": 200,
      "max": [
        0.4307706356048584,
        0.10462385416030884
      ],
      "min": [
        0.12113761901855469,
        0.0052562886849045753
      ],
      "type": "VEC2"
    },
    {
      "bufferView": 0,
      "byteOffset": 99060,
      "componentType": 5125,
      "count": 588,
      "max": [
        199
      ],
      "min": [
        0
      ],
      "type": "SCALAR"
    },
    {
      "bufferView": 2,
      "byteOffset": 192408,
      "componentType": 5126,
      "count": 200,
      "max": [
        0.069914579391479492,
        0.28140297532081604,
        0.28140291571617126
      ],
      "min": [
        -0.082547307014465332,
        -0.28140291571617126,
        -0.28140285611152649
      ],
      "type": "VEC3"
    },
    {
      "bufferView": 2,
      "byteOffset": 194808,
      "componentType": 5126,
      "count": 200,
      "max": [
        1,
        1,
        1
      ],
      "min": [
        -1,
        -1,
        -1
      ],
      "type": "VEC3"
    },
    {
      "bufferView": 1,
      "byteOffset": 64136,
      "componentType": 5126,
      "count": 200,
      "max": [
        0.4307706356048584,
        0.10462385416030884
      ],
      "min": [
        0.12113761901855469,
        0.0052562886849045753
      ],
      "type": "VEC2"
    },
    {
      "bufferView": 0,
      "byteOffset": 101412,
      "componentType": 5125,
      "count": 588,
      "max": [
        199
      ],
      "min": [
        0
      ],
      "type": "SCALAR"
    },
    {
      "bufferView": 2,
      "byteOffset": 197208,
      "componentType": 5126,
      "count": 200,
      "max": [
        0.082546927034854889,
        0.2814030647277832,
        0.28140291571617126
      ],
      "min": [
        -0.06991499662399292,
        -0.281402587890625,
        -0.28140285611152649
      ],
      "type": "VEC3"
    },
    {
      "bufferView": 2,
      "byteOffset": 199608,
      "componentType": 5126,
      "count": 200,
      "max": [
        1,
        1,
        1
      ],
      "min": [
        -1,
        -1,
        -1
      ],
      "type": "VEC3"
    },
    {
      "bufferView": 1,
      "byteOffset": 65736,
      "componentType": 5126,
      "count": 200,
      "max": [
        0.4307706356048584,
        0.10462385416030884
      ],
      "min": [
        0.12113761901855469,
        0.0052562886849045753
      ],
      "type": "VEC2"
    },
    {
      "bufferView": 0,
      "byteOffset": 103764,
      "componentType": 5125,
      "count": 588,
      "max": [
        199
      ],
      "min": [
        0
      ],
      "type": "SCALAR"
    },
    {
      "bufferView": 2,
      "byteOffset": 202008,
      "componentType": 5126,
      "count": 200,
      "max": [
        0.069914817810058594,
        0.2814030647277832,
        0.28140291571617126
      ],
      "min": [
        -0.08254706859588623,
        -0.281402587890625,
        -0.28140285611152649
      ],
      "type": "VEC3"
    },
    {
      "bufferView": 2,
      "byteOffset": 204408,
      "componentType": 5126,
      "count": 200,
      "max": [
        1,
        1,
        1
      ],
      "min": [
        -1,
        -1,
        -1
      ],
      "type": "VEC3"
    },
    {
      "bufferView": 1,
      "byteOffset": 67336,
      "componentType": 5126,
      "count": 200,
      "max": [
        0.4307706356048584,
        0.10462385416030884
      ],
      "min": [
        0.12113761901855469,
        0.0052562886849045753
      ],
      "type": "VEC2"
    },
    {
      "bufferView": 0,
      "byteOffset": 106116,
      "componentType": 5125,
      "count": 588,
      "max": [
        199
      ],
      "min": [
        0
      ],
      "type": "SCALAR"
    }
  ],
  "asset": {
    "extras": {
      "author": "KITSUNE GRAPHICS (https://sketchfab.com/kitsunegraphics)",
      "license": "CC-BY-4.0 (http://creativecommons.org/licenses/by/4.0/)",
      "source": "https://sketchfab.com/3d-models/vehicle-honda-t360-f729659ca6e743fe96ef6c36741d608b",
      "title": "VEHICLE - HONDA T360"
    },
    "generator": "Sketchfab-9.11.0",
    "version": "2.0"
  },
  "bufferViews": [
    {
      "buffer": 0,
      "byteLength": 108468,
      "byteOffset": 0,
      "name": "floatBufferViews",
      "target": 34963
    },
    {
      "buffer": 0,
      "byteLength": 68936,
      "byteOffset": 108468,
      "byteStride": 8,
      "name": "floatBufferViews",
      "target": 34962
    },
    {
      "buffer": 0,
      "byteLength": 206808,
      "byteOffset": 177404,
      "byteStride": 12,
      "name": "floatBufferViews",
      "target": 34962
    }
  ],
  "buffers": [
    {
      "byteLength": 384212,
      "uri": "scene.bin"
    }
  ],
  "images": [
    {
      "uri": "textures/Vehicle_baseColor.png"
    },
    {
      "uri": "textures/Matricula_baseColor.png"
    }
  ],
  "materials": [
    {
      "doubleSided": true,
      "emissiveFactor": [
        0,
        0,
        0
      ],
      "name": "Vehicle",
      "pbrMetallicRoughness": {
        "baseColorFactor": [
          1,
          1,
          1,
          1
        ],
        "baseColorTexture": {
          "index": 0,
          "texCoord": 0
        },
        "metallicFactor": 0,
        "roughnessFactor": 0.69999999999999996
      }
    },
    {
      "doubleSided": true,
      "emissiveFactor": [
        0,
        0,
        0
      ],
      "name": "Matricula",
      "pbrMetallicRoughness": {
        "baseColorFactor": [
          1,
          1,
          1,
          1
        ],
        "baseColorTexture": {
          "index": 1,
          "texCoord": 0
        },
        "metallicFactor": 0,
        "roughnessFactor": 1
      }
    }
  ],
  "meshes": [
    {
      "name": "Body_Vehicle_0",
      "primitives": [
        {
          "attributes": {
            "NORMAL": 1,
            "POSITION": 0,
            "TEXCOORD_0": 2
          },
          "indices": 3,
          "material": 0,
          "mode": 4
        }
      ]
    },
    {
      "name": "Circle.001_Matricula_0",
      "primitives": [
        {
          "attributes": {
            "NORMAL": 5,
            "POSITION": 4,
            "TEXCOORD_0": 6
          },
          "indices": 7,
          "material": 1,
          "mode": 4
        }
      ]
    },
    {
      "name": "FLW_Vehicle_0",
      "primitives": [
        {
          "attributes": {
            "NORMAL": 9,
            "POSITION": 8,
            "TEXCOORD_0": 10
          },
          "indices": 11,
          "material": 0,
          "mode": 4
        }
      ]
    },
    {
      "name": "FRW_Vehicle_0",
      "primitives": [
        {
          "attributes": {
            "NORMAL": 13,
            "POSITION": 12,
            "TEXCOORD_0": 14
          },
          "indices": 15,
          "material": 0,
          "mode": 4
        }
      ]
    },
    {
      "name": "RLW_Vehicle_0",
      "primitives": [
        {
          "attributes": {
            "NORMAL": 17,
            "POSITION": 16,
            "TEXCOORD_0": 18
          },
          "indices": 19,
          "material": 0,
          "mode": 4
        }
      ]
    },
    {
      "name": "RRW_Vehicle_0",
      "primitives": [
        {
          "attributes": {
            "NORMAL": 21,
            "POSITION": 20,
            "TEXCOORD_0": 22
          },
          "indices": 23,
          "material": 0,
          "mode": 4
        }
      ]
    }
  ],
  "nodes": [
    {
      "children": [
        1
      ],
      "name": "RootNode (gltf orientation matrix)",
      "rotation": [
        -0.70710678118654746,
        -0,
        -0,
        0.70710678118654757
      ]
    },
    {
      "children": [
        2
      ],
      "name": "RootNode (model correction matrix)"
    },
    {
      "children": [
        3
      ],
      "matrix": [
        1,
        0,
        0,
        0,
        0,
        0,
        1,
        0,
        0,
        -1,
        0,
        0,
        0,
        0,
        0,
        1
      ],
      "name": "fa4f940f090f4e54abfae429ea94509f.fbx"
    },
    {
      "children": [
        4,
        6,
        8,
        10,
        12,
        14
      ],
      "name": "RootNode"
    },
    {
      "children": [
        5
      ],
      "matrix": [
        100,
        0,
        0,
        0,
        0,
        -1.6292067939183141e-05,
        -99.999999999998678,
        0,
        0,
        99.999999999998678,
        -1.6292067939183141e-05,
        0,
        0,
        0,
        0,
        1
      ],
      "name": "Body"
    },
    {
      "mesh": 0,
      "name": "Body_Vehicle_0"
    },
    {
      "children": [
        7
      ],
      "matrix": [
        100,
        0,
        0,
        0,
        -0,
        -1.6292067939183141e-05,
        -99.999999999998678,
        0,
        0,
        99.999999999998678,
        -1.6292067939183141e-05,
        0,
        -1.4901161193847656e-06,
        46.429740905761719,
        149.37387084960938,
        1
      ],
      "name": "Circle.001"
    },
    {
      "mesh": 1,
      "name": "Circle.001_Matricula_0"
    },
    {
      "children": [
        9
      ],
      "matrix": [
        100,
        0,
        0,
        0,
        0,
        -1.6292067939183141e-05,
        -99.999999999998678,
        0,
        0,
        99.999999999998678,
        -1.6292067939183141e-05,
        0,
        55.137622833251953,
        28.140274047851562,
        104.16007232666016,
        1
      ],
      "name": "FLW"
    },
    {
      "mesh": 2,
      "name": "FLW_Vehicle_0"
    },
    {
      "children": [
        11
      ],
      "matrix": [
        100,
        0,
        0,
        0,
        -0,
        -1.6292067939183141e-05,
        -99.999999999998678,
        0,
        0,
        99.999999999998678,
        -1.6292067939183141e-05,
        0,
        -55.137580871582031,
        28.140275955200195,
        104.16007232666016,
        1
      ],
      "name": "FRW"
    },
    {
      "mesh": 3,
      "name": "FRW_Vehicle_0"
    },
    {
      "children": [
        13
      ],
      "matrix": [
        100,
        0,
        0,
        0,
        0,
        -1.6292067939183141e-05,
        -99.999999999998678,
        0,
        0,
        99.999999999998678,
        -1.6292067939183141e-05,
        0,
        55.137622833251953,
        28.140274047851562,
        -96.477493286132812,
        1
      ],
      "name": "RLW"
    },
    {
      "mesh": 4,
      "name": "RLW_Vehicle_0"
    },
    {
      "children": [
        15
      ],
      "matrix": [
        100,
        0,
        0,
        0,
        -0,
        -1.6292067939183141e-05,
        -99.999999999998678,
        0,
        0,
        99.999999999998678,
        -1.6292067939183141e-05,
        0,
        -55.137603759765625,
        28.140275955200195,
        -96.477493286132812,
        1
      ],
      "name": "RRW"
    },
    {
      "mesh": 5,
      "name": "RRW_Vehicle_0"
    }
  ],
  "samplers": [
    {
      "magFilter": 9729,
      "minFilter": 9987,
      "wrapS": 10497,
      "wrapT": 10497
    },
    {
      "magFilter": 9729,
      "minFilter": 9729,
      "wrapS": 10497,
      "wrapT": 10497
    }
  ],
  "scene": 0,
  "scenes": [
    {
      "name": "OSG_Scene",
      "nodes": [
        0
      ]
    }
  ],
  "textures": [
    {
      "sampler": 0,
      "source": 0
    },
    {
      "sampler": 1,
      "source": 1
    }
  ]
}

